<?xml version="1.0" ?><!DOCTYPE svg  PUBLIC '-//W3C//DTD SVG 1.0//EN'  'http://www.w3.org/TR/2001/REC-SVG-20010904/DTD/svg10.dtd'><svg height="54px" style="shape-rendering:geometricPrecision; text-rendering:geometricPrecision; image-rendering:optimizeQuality; fill-rule:evenodd; clip-rule:evenodd" version="1.0" viewBox="0 0 9661 8151" width="64px" xml:space="preserve" xmlns="http://www.w3.org/2000/svg" xmlns:xlink="http://www.w3.org/1999/xlink"><defs><style type="text/css">
   <![CDATA[
    .fil0 {fill:#27afb7;fill-rule:nonzero}
   ]]>
  </style></defs><g id="Layer_x0020_1"><path class="fil0" d="M151 0l4 0 9355 0c83,0 151,68 151,151l0 4 0 1200 0 4 0 4 0 6638c0,83 -68,151 -151,151l-4 0 -9355 0c-83,0 -151,-68 -151,-151l0 -4 0 -6634 0 -4 0 -4 0 -1204c0,-83 68,-151 151,-151zm6654 7396c-83,0 -151,-68 -151,-151 0,-83 68,-151 151,-151l1498 0c83,0 151,68 151,151 0,83 -68,151 -151,151l-1498 0zm604 -755c-83,0 -151,-68 -151,-151 0,-83 68,-151 151,-151l1498 0c83,0 151,68 151,151 0,83 -68,151 -151,151l-1498 0zm-6653 -4378c-83,0 -151,-68 -151,-151 0,-83 68,-151 151,-151l1498 0c83,0 151,68 151,151 0,83 -68,151 -151,151l-1498 0zm604 755c-83,0 -151,-68 -151,-151 0,-83 68,-151 151,-151l1498 0c83,0 151,68 151,151 0,83 -68,151 -151,151l-1498 0zm4959 594l-303 524c-42,72 -134,96 -206,55 -72,-42 -96,-134 -55,-206l303 -524c-326,-165 -690,-267 -1075,-288l0 605c0,83 -68,151 -151,151 -83,0 -151,-68 -151,-151l0 -605c-385,21 -749,122 -1075,288l303 525c41,72 16,164 -55,205 -72,41 -164,16 -205,-55l-302 -524c-157,103 -302,221 -434,353 -132,132 -250,278 -353,434l524 303c72,42 96,134 55,206 -42,72 -134,96 -206,55l-524 -303c-165,326 -267,690 -288,1075l1962 0 1 -3 1 -4 1 -6 0 -1 2 -7 0 -1 1 -6 1 -3 1 -4 1 -5 0 -2 2 -7 0 -1 2 -6 1 -3 1 -4 2 -5 1 -2 2 -7 0 0 2 -6 1 -3 1 -4 2 -5 1 -2 2 -7 0 0 2 -7 1 -2 1 -4 2 -4 1 -2 2 -7 3 -7 1 -2 2 -4 2 -4 1 -2 3 -6 0 0 3 -6 1 -2 2 -4 2 -4 1 -2 3 -6 0 0 3 -6 1 -2 2 -5 2 -4 1 -3 3 -6 0 0 3 -6 1 -1 2 -5 2 -3 1 -3 3 -5 0 -1 4 -6 1 -1 3 -5 2 -3 2 -3 3 -5 1 -1 4 -6 1 -1 3 -5 2 -3 2 -3 3 -5 1 -1 4 -6 1 -1 3 -5 2 -3 2 -3 3 -4 1 -1 4 -6 0 -1 4 -5 2 -2 2 -3 3 -4 1 -1 4 -5 0 -1 4 -5 2 -2 3 -3 3 -4 1 -1 4 -5 0 0 9 -10 3 -4 1 -1 5 -5 0 0 5 -5 2 -2 3 -3 3 -3 2 -2 5 -5 7 -6 7 -6 7 -6 7 -6 7 -6 7 -6 7 -6 7 -6 7 -6 7 -6 7 -6 7 -6 7 -5 7 -5 0 0 7 -5 7 -5 0 0 7 -5 0 0 8 -5 8 -5 0 0 8 -5 8 -5 8 -5 8 -4 8 -4 0 0 8 -4 0 0 8 -4 0 0 8 -4 8 -4 0 0 8 -4 8 -4 0 0 8 -4 9 -4 9 -4 0 0 9 -4 9 -3 0 0 9 -3 9 -3 0 0 9 -3 0 0 9 -3 0 0 9 -3 0 0 9 -3 0 0 9 -3 0 0 9 -2 0 0 9 -2 0 0 9 -2 0 0 9 -2 0 0 9 -2 0 0 9 -2 9 -2 0 0 9 -2 0 0 9 -2 0 0 9 -1 0 0 9 -1 0 0 9 -1 0 0 9 -1 10 -1 10 -1 0 0 10 -1 10 -1 0 0 10 -1 10 -1 10 0 10 0 0 0 10 0 10 0 0 0 10 0 10 0 10 1 9 1 410 -1534c21,-80 104,-128 185,-107 80,21 128,104 107,185l-410 1534 1 0 8 4 0 0 8 4 0 0 8 4 0 0 8 4 8 4 8 5 8 5 8 5 0 0 8 5 8 5 0 0 7 5 0 0 7 5 7 5 0 0 7 5 7 5 7 6 7 6 7 6 7 6 7 6 7 6 7 6 7 6 7 6 7 6 7 6 7 6 5 5 2 2 3 3 3 3 2 2 5 5 0 0 5 5 1 1 3 4 9 10 0 0 4 5 1 1 3 4 3 3 2 2 4 5 0 1 4 5 1 1 3 4 2 3 2 2 4 5 0 1 4 6 1 1 3 4 2 3 2 3 3 5 1 1 4 6 1 1 3 5 2 3 2 3 3 5 1 1 4 6 1 1 3 5 2 3 2 3 3 5 1 1 4 6 0 1 3 5 1 3 2 3 2 5 1 1 3 6 0 0 3 6 1 3 2 4 2 5 1 2 3 6 0 0 3 6 1 2 2 4 2 4 1 2 3 6 0 0 3 6 1 2 2 4 2 4 1 2 3 7 2 7 1 2 2 4 1 4 1 2 2 7 0 0 2 7 1 2 2 5 1 4 1 3 2 6 0 0 2 7 1 2 2 5 1 4 1 3 2 6 0 1 2 7 0 2 1 5 1 4 1 3 1 6 0 1 2 7 0 1 1 6 1 4 1 3 1962 0c-21,-385 -122,-749 -288,-1075l-525 303c-72,41 -164,16 -205,-55 -41,-72 -16,-164 55,-205l524 -302c-103,-157 -221,-302 -353,-434 -132,-132 -278,-250 -434,-353zm-1228 1890l-113 423c-21,80 -104,128 -185,107 -80,-21 -128,-104 -107,-185l113 -424c-115,8 -219,58 -295,135 -84,84 -136,200 -136,328l0 4 0 2c2,125 53,239 136,322 84,84 200,136 328,136 128,0 244,-52 328,-136 83,-83 134,-196 136,-322l0 -2 0 -4 0 -4 0 -2 0 -4 0 -2 0 -4 0 -2 0 -4 0 -2 0 -4 0 -2 0 -4 0 -2 0 -4 0 -2 0 -3 0 -2 0 -3 0 -2 0 -3 0 -2 0 -3 0 -3 -1 -3 0 -3 -1 -3 0 -3 -1 -3 -1 -3 -1 -3 -1 -3 -1 -3 -1 -3 -1 -3 -1 -3 -1 -3 -1 -3 -1 -3 -1 -3 -1 -2 -1 -3 -1 -2 -1 -3 -1 -2 -1 -3 -1 -2 -1 -3 -1 -2 -1 -3 -1 -2 -1 -3 -1 -2 -1 -3 -1 -2 -1 -3 -1 -2 -1 -3 -1 -2 -1 -3 -1 -2 -1 -3 -1 -2 -1 -3 -1 -2 -1 -3 -1 -2 -1 -4 -1 -2 -2 -3 -1 -2 -2 -4 -1 -2 -2 -4 -1 -1 -2 -4 -1 -1 -2 -4 -1 -1 -2 -4 -1 -1 -2 -4 -1 -1 -2 -4 -1 -1 -2 -4 -1 -1 -2 -4 -1 -1 -2 -4 -1 -1 -2 -4 -1 -1 -2 -4 -1 -1 -2 -4 -1 -1 -3 -4 -1 -1 -2 -4 -1 -1 -3 -4 -1 -1 -3 -4 0 -1 -3 -4 -1 -1 -3 -4 0 -1 -3 -4 0 0 -1 -1 -6 -7 -1 -1 0 0 -3 -4 0 0 -3 -4 0 0 -3 -4 0 0 -4 -4 0 0 -4 -4 0 0 -4 -4 0 0 -4 -4 -4 -4c-21,-21 -44,-40 -69,-57zm492 536c-30,151 -105,286 -209,390 -139,139 -330,224 -541,224 -211,0 -403,-86 -541,-224 -105,-105 -179,-240 -209,-390l-2117 0c-83,0 -151,-68 -151,-151l0 -4c1,-832 339,-1585 884,-2130 544,-544 1296,-882 2127,-884l4 0 4 0 4 0 4 0c830,2 1583,340 2127,884 546,546 884,1301 884,2135 0,83 -68,151 -151,151l-4 0 -2114 0zm-3317 -5434l302 0 0 302 -302 0 0 -302zm-755 0l302 0 0 302 -302 0 0 -302zm-755 0l302 0 0 302 -302 0 0 -302zm8604 906l-9057 0 0 6340 9057 0 0 -6340zm-9057 -302l9057 0 0 -905 -9057 0 0 905z"/></g></svg>